<?xml version="1.0" encoding="UTF-8"?>
<svg width="22px" height="22px" viewBox="0 0 22 22" version="1.1" xmlns="http://www.w3.org/2000/svg" xmlns:xlink="http://www.w3.org/1999/xlink">
    <!-- Generator: Sketch 51.2 (57519) - http://www.bohemiancoding.com/sketch -->
    <title>Untitled 2</title>
    <desc>Created with Sketch.</desc>
    <defs></defs>
    <g id="Page-1" stroke="none" stroke-width="1" fill="none" fill-rule="evenodd">
        <path d="M0.000687608757,0.896689655 C0.000687608757,0.403586207 0.367183076,0 0.814816377,0 L3.75778186,0 C4.12427732,0 4.45020387,0.268551724 4.54509388,0.657724138 L7.868307,13.8994483 L16.9296152,13.8994483 L19.9406539,6.27682759 L9.90225371,6.27682759 C9.453472,6.27599544 9.0896379,5.8752649 9.08812494,5.38013793 C9.08812494,4.88703448 9.45462041,4.48344828 9.90225371,4.48344828 L21.1879762,4.48344828 C21.4588941,4.48344828 21.717435,4.63289655 21.8659585,4.88703448 C22.0151696,5.14117241 22.0426739,5.45524138 21.9340317,5.73896552 L18.2175064,15.1549655 C18.0813599,15.4834483 17.7966898,15.6928276 17.4714509,15.6928276 L7.25702282,15.6928276 C6.89051605,15.6939287 6.56852464,15.4247004 6.4703984,15.0351034 L3.14718528,1.79337931 L0.814128768,1.79337931 C0.365347057,1.79254717 0.001512966,1.39181662 0,0.896689655 L0.000687608757,0.896689655 Z M4.63998389,19.9668966 C4.67325299,18.8694767 5.48924407,17.9988224 6.48449438,17.9988224 C7.47974469,17.9988224 8.29573577,18.8694767 8.32900487,19.9668966 C8.29573577,21.0643164 7.47974469,21.9349707 6.48449438,21.9349707 C5.48924407,21.9349707 4.67325299,21.0643164 4.63998389,19.9668966 Z M16.1835597,20.101931 C16.1147988,18.9958621 16.8752941,18.0096552 17.8922675,17.9345517 C18.9099284,17.8602069 19.7914428,18.7121379 19.8588285,19.8182069 C19.8863329,20.3704828 19.7371218,20.893931 19.4118828,21.2975172 C19.0927296,21.707518 18.6386575,21.9603214 18.1501207,22 L18.0146618,22 C17.0513219,22 16.2509454,21.1632414 16.1835597,20.101931 Z" id="uvnaa" fill="#FFFFFF" fill-rule="nonzero"></path>
    </g>
</svg>